<svg width="16" height="20" viewBox="0 0 16 20" fill="none" xmlns="http://www.w3.org/2000/svg">
<path fill-rule="evenodd" clip-rule="evenodd" d="M2 0C0.895386 0 0 0.895447 0 2V4C0 5.10455 0.895386 6 2 6H2.07324C2.28931 7.42279 2.96765 8.50378 3.89355 9.33704C4.97632 10.3115 6.37793 10.9282 7.62866 11.4285C7.88049 11.5292 8.12488 11.6249 8.36121 11.7175C9.36658 12.1111 10.2261 12.4477 10.9025 12.8761C11.4688 13.2347 11.7917 13.5858 11.9259 14.0013C10.8556 14.0403 10 14.9202 10 16V18C10 19.1046 10.8954 20 12 20H14C15.1046 20 16 19.1046 16 18V16C16 14.8954 15.1046 14 14 14H13.9681C13.796 12.6842 12.95 11.8054 11.9725 11.1864C11.1168 10.6445 10.027 10.2194 9.01233 9.82361L9.00928 9.82245L8.97546 9.80927C8.77002 9.72906 8.56775 9.65015 8.37134 9.57153C7.12207 9.07184 6.02368 8.56348 5.23145 7.85046C4.69397 7.36676 4.29004 6.78247 4.10742 5.99719C5.16211 5.94135 6 5.06848 6 4V2C6 0.895447 5.10461 0 4 0H2ZM4 2H2V4H4V2ZM2 14C0.895386 14 0 14.8954 0 16V18C0 19.1046 0.895386 20 2 20H4C5.10461 20 6 19.1046 6 18V16C6 14.8954 5.10461 14 4 14V12C4 11.6412 3.77417 11.5105 3.42993 11.3112C3.04968 11.091 2.52478 10.7872 2 10V14ZM4 16H2V18H4V16ZM12 16H14V18H12V16Z" fill="#535374"/>
</svg>
