<svg width="16" height="19" viewBox="0 0 16 19" fill="none" xmlns="http://www.w3.org/2000/svg">
<path fill-rule="evenodd" clip-rule="evenodd" d="M6 0C5.44775 0 5 0.447693 5 1C5 1.55231 5.44775 2 6 2H7V3.06189C3.05359 3.55396 0 6.92041 0 11C0 15.0796 3.05359 18.446 7 18.9381C7.32764 18.9789 7.66138 19 8 19C12.4183 19 16 15.4183 16 11C16 6.92041 12.9464 3.55396 9 3.06189V2H10C10.5522 2 11 1.55231 11 1C11 0.447693 10.5522 0 10 0H6ZM7 16.9171C7.3252 16.9716 7.6593 17 8 17C11.3137 17 14 14.3137 14 11C14 7.68628 11.3137 5 8 5C7.6593 5 7.3252 5.02838 7 5.08295C4.16223 5.55902 2 8.02698 2 11C2 13.973 4.16223 16.441 7 16.9171ZM9 8.10547C9 7.55322 8.55273 7.10547 8 7.10547C7.44727 7.10547 7 7.55322 7 8.10547V11.2964C7 11.8645 7.32031 12.384 7.83008 12.6382L9.55273 13.5C10.0469 13.7468 10.6465 13.5466 10.8945 13.0527C11.1406 12.5586 10.9414 11.958 10.4473 11.7109L9 10.9875V8.10547Z" fill="#535374"/>
</svg>
