<svg width="16" height="19" viewBox="0 0 16 19" fill="none" xmlns="http://www.w3.org/2000/svg">
<path fill-rule="evenodd" clip-rule="evenodd" d="M5 1C5 0.447693 5.44775 0 6 0H10C10.5522 0 11 0.447693 11 1C11 1.55231 10.5522 2 10 2H9V3.06189C12.9464 3.55396 16 6.92041 16 11C16 15.4183 12.4183 19 8 19C7.66138 19 7.32764 18.9789 7 18.9381V16.9171C7.3252 16.9716 7.6593 17 8 17C11.3137 17 14 14.3137 14 11C14 7.68628 11.3137 5 8 5C7.6593 5 7.3252 5.02838 7 5.08295V4V3.06189V2H6C5.44775 2 5 1.55231 5 1ZM4 5C3.44775 5 3 5.44769 3 6C3 6.55231 3.44775 7 4 7H5C5.55225 7 6 6.55231 6 6C6 5.44769 5.55225 5 5 5H4ZM3 17C3 16.4477 3.44775 16 4 16H5C5.55225 16 6 16.4477 6 17C6 17.5523 5.55225 18 5 18H4C3.44775 18 3 17.5523 3 17ZM1 8C0.447754 8 0 8.44769 0 9C0 9.55231 0.447754 10 1 10H3C3.55225 10 4 9.55231 4 9C4 8.44769 3.55225 8 3 8H1ZM0 13C0 12.4477 0.447754 12 1 12H3C3.55225 12 4 12.4477 4 13C4 13.5523 3.55225 14 3 14H1C0.447754 14 0 13.5523 0 13Z" fill="#535374"/>
<path d="M8 7.10547C8.55273 7.10547 9 7.55322 9 8.10547V10.9875L10.4473 11.7109C10.9414 11.958 11.1406 12.5586 10.8945 13.0527C10.6465 13.5466 10.0469 13.7468 9.55273 13.5L7.83008 12.6382C7.32031 12.384 7 11.8645 7 11.2964V8.10547C7 7.55322 7.44727 7.10547 8 7.10547Z" fill="#535374"/>
</svg>
